# xmcd
#
# Track frame offsets:
#	150
#	16199
#	30277
#	44826
#	61094
#	74893
#	88657
#	102178
#	115757
#	129220
#	141975
#	156203
#	171470
#	187390
#	200821
#	214620
#	225265
#	240015
#	255151
#	269657
#
# Disc length: 3768 seconds
#
# Revision: 0
# Processed by: cddbd v1.5.2PL0 Copyright (c) Steve Scherf et al.
# Submitted via: audiograbber 1.83.01
#
DISCID=1a0eb614
DTITLE=Lale Andersen - Lili Marleen
DYEAR=1900
DGENRE=Ballad
TTITLE0=Lili Marleen
TTITLE1=Da draußen am Hafen
TTITLE2=Unter einem Regenbogen
TTITLE3=Der Junge an der Reeling
TTITLE4=Mademoiselle aus Paris
TTITLE5=La Seine
TTITLE6=Kleines Sommermärchen
TTITLE7=Und wieder geht ein schöner Tag zuende
TTITLE8=Hafen und Mädchen
TTITLE9=Am Kai der alten Laterne
TTITLE10=Blaue Augen voller Tränen
TTITLE11=Die Rosen, sie blühen nur im Mai
TTITLE12=Unter der roten Laterne von St. Pauli
TTITLE13=Liebeslied am Hafen
TTITLE14=Einmal noch nach Bombay
TTITLE15=Drei rote Rosen
TTITLE16=Der kleine Seemann
TTITLE17=Es geht alles vorüber
TTITLE18=Schiffsjungenlied
TTITLE19=Schwarzer Rudolf
EXTD=
EXTT0=
EXTT1=
EXTT2=
EXTT3=
EXTT4=
EXTT5=
EXTT6=
EXTT7=
EXTT8=
EXTT9=
EXTT10=
EXTT11=
EXTT12=
EXTT13=
EXTT14=
EXTT15=
EXTT16=
EXTT17=
EXTT18=
EXTT19=
PLAYORDER=
